<svg xmlns="http://www.w3.org/2000/svg" viewBox="0 0 540 440" role="img" aria-labelledby="t d"><title id="t">Marginal Falls</title><desc id="d">A riverside town with shops, market stalls, homes, and a bridge.</desc>
<defs><pattern id="grain" width="14" height="14" patternUnits="userSpaceOnUse"><circle cx="3" cy="4" r=".6" fill="#718268" opacity=".15"/><circle cx="10" cy="11" r=".5" fill="#718268" opacity=".12"/></pattern></defs>
<rect width="540" height="440" fill="#eaeadd"/><circle cx="414" cy="84" r="32" fill="#d9c393" opacity=".7"/><path d="M0 182Q88 117 168 142T324 133T540 170V440H0Z" fill="#d4dcc6"/><path d="M0 257Q98 205 163 222T329 205T540 248V440H0Z" fill="#c1cdb3"/><path d="M255 155C278 190 330 192 317 230S224 262 255 313 360 346 321 440" stroke="#729b9f" stroke-width="60" fill="none"/><path d="M249 168C274 197 319 198 307 233S217 272 247 315 348 350 311 435" stroke="#bfd1ca" stroke-width="3" fill="none" opacity=".65"/><path d="M254 201q17 8 25 5M258 284q-8 13-4 21M308 385q11 14 7 25" fill="none" stroke="#d3e1d7" stroke-width="2"/>
<path d="M36 312Q117 278 186 274T404 265L500 312" fill="none" stroke="#eee7d2" stroke-width="23"/><path d="M277 237L324 259" stroke="#8c7961" stroke-width="32"/><path d="M275 225l56 25M265 245l55 25" stroke="#5d6954" stroke-width="4"/><path d="M277 229l-10 16M287 233l-9 17M297 238l-9 17M307 243l-9 17M317 248l-9 17M327 253l-9 17" stroke="#b6a181" stroke-width="3"/>
<g transform="translate(60 164)"><path d="M0 35L49 4l53 31v65H0Z" fill="#f7efd9"/><path d="M-7 35L49-1l60 36" fill="none" stroke="#8c6048" stroke-width="11" stroke-linejoin="round"/><rect x="13" y="50" width="20" height="23" fill="#88a29b"/><rect x="69" y="50" width="20" height="23" fill="#88a29b"/><rect x="42" y="56" width="21" height="44" fill="#626f56"/><path d="M6 79h91" stroke="#d8d0b7" stroke-width="3"/></g>
<g transform="translate(154 188)"><rect x="0" y="29" width="65" height="58" fill="#eee7cf"/><path d="M-7 29L33 0l40 29" fill="#698168"/><rect x="9" y="44" width="13" height="16" fill="#91aaa1"/><rect x="45" y="44" width="13" height="16" fill="#91aaa1"/><rect x="27" y="51" width="14" height="36" fill="#a18159"/></g>
<g transform="translate(359 163)"><rect x="0" y="28" width="92" height="77" fill="#f6ead2"/><path d="M-7 28L44-2l55 30" fill="#8e604d"/><rect x="12" y="43" width="19" height="26" fill="#9aafa1"/><rect x="61" y="43" width="19" height="26" fill="#9aafa1"/><rect x="34" y="63" width="22" height="42" fill="#63775f"/><path d="M8 74h77v12H8Z" fill="#d7b071"/><path d="M8 74v12M24 74v12M41 74v12M58 74v12M76 74v12" stroke="#f7efd9" stroke-width="7"/><rect x="71" y="0" width="12" height="26" fill="#8e604d"/></g>
<g transform="translate(390 314)"><rect x="0" y="15" width="53" height="40" fill="#e8dec1"/><path d="M-5 15L26-5l32 20" fill="#70826a"/><rect x="21" y="31" width="12" height="24" fill="#9d7e56"/><rect x="7" y="25" width="10" height="13" fill="#9caf9f"/><rect x="37" y="25" width="10" height="13" fill="#9caf9f"/></g>
<g transform="translate(72 330)"><path d="M0 20h57v38H0Z" fill="#d1b784"/><path d="M-4 20L7 0h44l10 20" fill="#8c6951"/><path d="M9 0L1 20M24 0l-2 20M38 0l3 20M49 0l10 20" stroke="#e4d6b5" stroke-width="8"/><path d="M2 20v52M55 20v52" stroke="#657157" stroke-width="4"/><rect x="4" y="46" width="49" height="12" fill="#a4865d"/><circle cx="15" cy="43" r="5" fill="#a76048"/><circle cx="28" cy="43" r="5" fill="#baa157"/><circle cx="41" cy="43" r="5" fill="#748655"/></g>
<g transform="translate(156 317)"><path d="M0 20h54v40H0Z" fill="#c5b385"/><path d="M-4 20L7 0h40l11 20" fill="#768969"/><path d="M10 0L3 20M23 0v20M37 0l4 20M47 0l8 20" stroke="#e1e6cd" stroke-width="7"/><path d="M2 20v53M52 20v53" stroke="#657157" stroke-width="4"/><rect x="3" y="47" width="48" height="13" fill="#a3865c"/></g>
<g fill="#7f946f"><path d="M27 254l-8-29h17Z"/><circle cx="27" cy="219" r="16"/><circle cx="29" cy="203" r="13"/><path d="M484 244l-8-30h16Z"/><circle cx="484" cy="207" r="19"/><circle cx="486" cy="188" r="15"/><path d="M335 357l-7-29h14Z"/><circle cx="335" cy="322" r="16"/><circle cx="338" cy="307" r="12"/><path d="M62 143l-6-20h12Z"/><circle cx="61" cy="118" r="14"/></g><g stroke="#6d7658" stroke-width="4"><path d="M27 218v39M484 207v43M335 321v39M61 119v28"/></g>
<g fill="#8a5e48"><circle cx="117" cy="293" r="4"/><rect x="114" y="298" width="6" height="11" rx="3"/><circle cx="352" cy="273" r="4"/><rect x="349" y="278" width="6" height="11" rx="3"/></g><g fill="#5f7d6b"><circle cx="218" cy="353" r="4"/><rect x="215" y="358" width="6" height="11" rx="3"/><circle cx="461" cy="293" r="4"/><rect x="458" y="298" width="6" height="11" rx="3"/></g>
<path d="M35 84q8-10 16 0 8-10 16 0M101 65q6-8 12 0 6-8 12 0" fill="none" stroke="#8c967d" stroke-width="2"/><rect width="540" height="440" fill="url(#grain)"/>
</svg>
